<svg width="15" height="40" viewBox="0 0 15 40" fill="none" xmlns="http://www.w3.org/2000/svg">
<g clip-path="url(#clip0_69_2268)">
<path d="M13.4754 20.9152C13.6242 21.064 13.6986 21.2352 13.6986 21.4286C13.6986 21.6221 13.6242 21.7932 13.4754 21.942L3.07359 32.3438C2.92478 32.4926 2.75365 32.567 2.5602 32.567C2.36675 32.567 2.19561 32.4926 2.04681 32.3438L0.930734 31.2277C0.781924 31.0789 0.70752 30.9078 0.70752 30.7143C0.70752 30.5209 0.781924 30.3498 0.930734 30.2009L9.70306 21.4286L0.930734 12.6563C0.781924 12.5075 0.70752 12.3364 0.70752 12.1429C0.70752 11.9495 0.781924 11.7783 0.930734 11.6295L2.04681 10.5134C2.19561 10.3646 2.36675 10.2902 2.5602 10.2902C2.75365 10.2902 2.92478 10.3646 3.07359 10.5134L13.4754 20.9152Z" fill="#313131"/>
</g>
<defs>
<clipPath id="clip0_69_2268">
<rect width="14.3" height="40" fill="white" transform="matrix(1 0 0 -1 0.700195 40)"/>
</clipPath>
</defs>
</svg>
