<svg width="13" height="13" viewBox="0 0 13 13" fill="none" xmlns="http://www.w3.org/2000/svg">
<path d="M6.944 12.394C6.944 12.5433 6.89267 12.667 6.79 12.765C6.68733 12.863 6.56133 12.912 6.412 12.912C6.26267 12.912 6.139 12.863 6.041 12.765C5.943 12.667 5.894 12.5433 5.894 12.394V7.01799H0.518C0.368667 7.01799 0.245 6.96899 0.147 6.87099C0.049 6.77299 0 6.64932 0 6.49999C0 6.35065 0.049 6.22465 0.147 6.12199C0.245 6.01932 0.368667 5.96799 0.518 5.96799H5.894V0.605987C5.894 0.456654 5.943 0.332987 6.041 0.234987C6.139 0.136987 6.26267 0.0879869 6.412 0.0879869C6.56133 0.0879869 6.68733 0.136987 6.79 0.234987C6.89267 0.332987 6.944 0.456654 6.944 0.605987V5.96799H12.306C12.4553 5.96799 12.579 6.01932 12.677 6.12199C12.775 6.22465 12.824 6.35065 12.824 6.49999C12.824 6.64932 12.775 6.77299 12.677 6.87099C12.579 6.96899 12.4553 7.01799 12.306 7.01799H6.944V12.394Z" fill="#BBBBBB"/>
</svg>
