<svg width="12" height="12" viewBox="0 0 12 12" fill="none" xmlns="http://www.w3.org/2000/svg">
<path d="M5.13596 2.68798L7.84796 5.51998C7.97596 5.64798 8.03996 5.80398 8.03996 5.98798C8.03996 6.17198 7.97596 6.32798 7.84796 6.45598L5.13596 9.28798C5.00796 9.41598 4.84796 9.47998 4.65596 9.47998C4.46396 9.47998 4.30396 9.41598 4.17596 9.28798C3.88796 8.99998 3.88796 8.67998 4.17596 8.32798L6.40796 5.99998L4.17596 3.64798C3.88796 3.29598 3.88796 2.97598 4.17596 2.68798C4.30396 2.55998 4.46796 2.49598 4.66796 2.49598C4.86796 2.49598 5.02396 2.55998 5.13596 2.68798Z" fill="#999999"/>
</svg>
