<svg width="15" height="40" viewBox="0 0 15 40" fill="none" xmlns="http://www.w3.org/2000/svg">
<path d="M12.7749 11.6295C12.9237 11.7783 12.9982 11.9495 12.9982 12.1429C12.9982 12.3364 12.9237 12.5075 12.7749 12.6563L4.00262 21.4286L12.7749 30.2009C12.9237 30.3498 12.9982 30.5209 12.9982 30.7143C12.9982 30.9078 12.9237 31.0789 12.7749 31.2277L11.6589 32.3438C11.5101 32.4926 11.3389 32.567 11.1455 32.567C10.952 32.567 10.7809 32.4926 10.6321 32.3438L0.230294 21.942C0.0814848 21.7932 0.00708008 21.6221 0.00708008 21.4286C0.00708008 21.2352 0.0814848 21.064 0.230294 20.9152L10.6321 10.5134C10.7809 10.3646 10.952 10.2902 11.1455 10.2902C11.3389 10.2902 11.5101 10.3646 11.6589 10.5134L12.7749 11.6295Z" fill="#313131"/>
</svg>
